<svg width="15" height="13" viewBox="0 0 15 13" fill="none" xmlns="http://www.w3.org/2000/svg">
<path d="M7.3929 0.873596C6.51737 0.873596 5.65042 1.02493 4.84155 1.31896C4.03267 1.61299 3.2977 2.04395 2.67861 2.58725C2.05952 3.13054 1.56844 3.77553 1.23339 4.48537C0.898338 5.19522 0.725891 5.95603 0.725891 6.72437C0.725891 7.4927 0.898338 8.25351 1.23339 8.96336C1.56844 9.67321 2.05952 10.3182 2.67861 10.8615C3.2977 11.4048 4.03267 11.8357 4.84155 12.1298C5.65042 12.4238 6.51737 12.5751 7.3929 12.5751C9.1611 12.5751 10.8569 11.9587 12.1072 10.8615C13.3575 9.76425 14.0599 8.27609 14.0599 6.72437C14.0599 5.17264 13.3575 3.68448 12.1072 2.58725C10.8569 1.49001 9.1611 0.873596 7.3929 0.873596ZM10.0599 7.30971H7.3929C7.216 7.30971 7.04634 7.24804 6.92126 7.13826C6.79617 7.02849 6.7259 6.87961 6.7259 6.72437V4.38388C6.7259 4.22864 6.79617 4.07976 6.92126 3.96998C7.04634 3.86021 7.216 3.79854 7.3929 3.79854C7.5698 3.79854 7.73945 3.86021 7.86454 3.96998C7.98963 4.07976 8.0599 4.22864 8.0599 4.38388V6.13903H10.0599C10.2368 6.13903 10.4065 6.2007 10.5315 6.31047C10.6566 6.42024 10.7269 6.56912 10.7269 6.72437C10.7269 6.87961 10.6566 7.02849 10.5315 7.13826C10.4065 7.24804 10.2368 7.30971 10.0599 7.30971Z" fill="#8BACD9"/>
</svg>
