<svg width="45" height="31" viewBox="0 0 45 31" fill="none" xmlns="http://www.w3.org/2000/svg">
<path d="M22.7972 0.724365C12.7972 0.724365 4.25718 6.94437 0.79718 15.7244C4.25718 24.5044 12.7972 30.7244 22.7972 30.7244C32.8072 30.7244 41.3372 24.5044 44.7972 15.7244C41.3372 6.94437 32.8072 0.724365 22.7972 0.724365ZM22.7972 25.7244C17.2772 25.7244 12.7972 21.2444 12.7972 15.7244C12.7972 10.2044 17.2772 5.72437 22.7972 5.72437C28.3172 5.72437 32.7972 10.2044 32.7972 15.7244C32.7972 21.2444 28.3172 25.7244 22.7972 25.7244ZM22.7972 9.72437C19.4872 9.72437 16.7972 12.4144 16.7972 15.7244C16.7972 19.0344 19.4872 21.7244 22.7972 21.7244C26.1072 21.7244 28.7972 19.0344 28.7972 15.7244C28.7972 12.4144 26.1072 9.72437 22.7972 9.72437Z" fill="white"/>
</svg>
